<?xml version="1.0" standalone="no"?>
<!DOCTYPE svg PUBLIC "-//W3C//DTD SVG 20010904//EN"
 "http://www.w3.org/TR/2001/REC-SVG-20010904/DTD/svg10.dtd">
<svg version="1.0" xmlns="http://www.w3.org/2000/svg"
 width="1474.000000pt" height="1475.000000pt" viewBox="0 0 1474.000000 1475.000000"
 preserveAspectRatio="xMidYMid meet">

<g transform="translate(0.000000,1475.000000) scale(0.100000,-0.100000)"
fill="#000000" stroke="none">
<path d="M7225 14739 c-249 -34 -482 -131 -680 -284 -38 -30 -1443 -1428
-3121 -3107 -2856 -2857 -3056 -3059 -3117 -3154 -107 -161 -170 -315 -213
-514 -26 -119 -26 -410 -1 -530 45 -212 136 -418 252 -571 42 -56 1094 -1114
3127 -3145 2675 -2674 3074 -3068 3148 -3117 162 -105 324 -173 510 -213 66
-15 127 -19 275 -19 148 0 209 4 275 19 197 43 387 125 540 235 66 47 789 765
3156 3133 3344 3346 3124 3119 3228 3339 87 184 123 331 133 540 15 342 -85
661 -292 924 -35 44 -1435 1451 -3112 3126 -2852 2851 -3054 3051 -3149 3112
-158 104 -311 168 -499 209 -106 22 -354 32 -460 17z m362 -1694 c182 -30 330
-88 487 -192 86 -57 163 -128 531 -493 237 -234 1213 -1199 2170 -2145 2118
-2092 2049 -2023 2114 -2115 142 -202 214 -430 215 -680 0 -251 -65 -467 -207
-680 -57 -86 -158 -188 -2592 -2606 -2125 -2110 -2147 -2131 -2232 -2187 -361
-238 -802 -269 -1188 -83 -203 97 18 -116 -2530 2446 -2326 2339 -2330 2343
-2382 2420 -292 432 -284 987 20 1396 75 101 4603 4626 4703 4700 167 124 356
200 569 227 74 10 238 6 322 -8z"/>
<path d="M10157 9809 c-125 -29 -217 -123 -293 -297 -40 -95 -73 -207 -125
-427 -22 -93 -54 -216 -71 -272 l-31 -103 -86 1 c-47 0 -180 4 -296 8 -232 9
-441 0 -561 -24 -97 -20 -208 -70 -264 -121 -81 -74 -120 -198 -101 -329 12
-81 30 -101 121 -136 125 -47 181 -52 605 -53 l400 -1 -3 -40 c-4 -52 -23
-124 -83 -325 -71 -241 -92 -347 -87 -455 3 -67 10 -101 26 -131 46 -90 136
-129 277 -122 105 5 174 38 242 112 99 108 159 260 243 621 28 121 60 248 71
283 l21 62 431 0 c250 -1 462 3 504 9 280 41 450 249 388 477 -20 73 -47 101
-125 127 -116 39 -165 42 -593 41 l-418 -2 6 47 c4 25 31 147 60 271 69 286
85 381 85 494 0 207 -76 298 -246 295 -33 -1 -76 -5 -97 -10z"/>
<path d="M4975 9539 c-362 -13 -447 -30 -490 -101 -41 -69 -8 -240 76 -394 24
-43 39 -84 39 -105 0 -44 -30 -161 -140 -543 -49 -171 -152 -538 -230 -816
-213 -763 -337 -1193 -366 -1267 -61 -164 -143 -266 -272 -342 -41 -24 -81
-56 -92 -73 -23 -39 -31 -99 -22 -167 7 -51 9 -55 43 -67 114 -39 473 -70 695
-60 253 12 413 46 464 101 20 22 22 31 18 92 -5 74 -21 111 -79 189 -78 103
-87 188 -39 383 104 424 432 1509 474 1567 13 17 16 15 46 -31 50 -78 182
-354 385 -805 323 -719 490 -1041 647 -1247 87 -116 144 -167 233 -209 129
-61 260 -79 387 -53 80 16 206 81 271 139 182 164 248 350 577 1625 257 997
368 1361 481 1587 50 99 83 136 190 212 48 34 98 74 110 90 46 58 32 192 -23
226 -127 77 -717 95 -981 30 -118 -29 -157 -55 -180 -115 -27 -73 -19 -111 46
-200 74 -101 91 -155 84 -259 -7 -92 -64 -317 -172 -681 -41 -137 -101 -344
-134 -460 -67 -234 -81 -273 -108 -298 -19 -17 -25 -6 -221 390 -703 1428
-701 1424 -797 1518 -93 91 -203 129 -424 145 -140 10 -154 10 -496 -1z"/>
<path d="M8390 7020 c-160 -43 -274 -117 -300 -195 -11 -33 -10 -40 7 -64 38
-50 115 -62 238 -36 141 30 290 124 315 200 32 96 -91 140 -260 95z"/>
<path d="M10472 6590 c-262 -37 -527 -205 -676 -428 -68 -103 -97 -181 -103
-277 -4 -70 -2 -86 19 -125 28 -55 92 -104 160 -125 66 -19 225 -20 315 -1
151 32 308 103 380 171 49 47 62 87 42 124 -23 41 -58 38 -167 -13 -54 -25
-123 -51 -154 -57 -49 -10 -61 -9 -95 7 -29 14 -39 26 -41 47 -5 41 13 57 67
57 185 1 429 141 523 300 84 143 66 267 -45 309 -41 16 -152 21 -225 11z m-54
-208 c10 -68 -125 -242 -187 -242 -25 0 -31 4 -31 21 0 36 63 150 111 201 38
41 52 49 75 46 21 -2 30 -9 32 -26z"/>
<path d="M8296 6574 c-94 -18 -227 -62 -300 -99 -66 -33 -106 -80 -106 -126 0
-31 9 -39 54 -49 25 -5 30 -11 28 -29 -1 -13 -45 -131 -98 -264 -53 -133 -96
-256 -96 -273 0 -72 45 -107 134 -106 85 1 148 18 247 63 99 46 145 79 172
123 36 58 22 86 -42 86 -40 0 -38 15 17 151 104 258 174 449 174 478 0 59 -51
72 -184 45z"/>
<path d="M8975 6579 c-69 -16 -228 -70 -275 -94 -64 -33 -109 -75 -119 -111
-12 -41 -1 -55 45 -63 39 -7 39 -7 38 -51 -1 -49 -53 -192 -139 -380 -80 -175
-85 -213 -33 -241 32 -17 167 -13 239 7 62 18 130 67 153 113 8 14 37 89 66
166 88 235 130 306 205 346 52 28 78 20 83 -26 4 -31 5 -28 -99 -276 -44 -102
-82 -207 -85 -232 -13 -90 44 -127 164 -108 159 25 330 109 367 181 21 41 16
60 -20 80 -16 9 -31 24 -33 32 -3 16 21 82 116 313 83 204 86 253 17 314 -83
72 -219 45 -446 -90 -86 -51 -100 -45 -97 38 2 47 -1 58 -21 74 -25 20 -62 23
-126 8z"/>
</g>
</svg>
